<svg version="1.1" id="Layer_1" xmlns="http://www.w3.org/2000/svg" xmlns:xlink="http://www.w3.org/1999/xlink" x="0px" y="0px" viewBox="0 0 333.7546 320.4908" enable-background="new 0 0 333.7546 320.4908" xml:space="preserve">
<g>
	<path d="M26.7714,314.4324c10.0203,5.4506,22.1736,3.2584,29.7366-4.5773l28.0035,7.942c0.8979,0.2544,1.8154,0.3794,2.728,0.3794
		c2.1494,0,4.269-0.6934,6.0239-2.0176c2.4995-1.8862,3.9717-4.8345,3.9766-7.9663l0.0884-54.4014l-5.1331-0.0083l1.6117-13.2117
		l2.7917,0.3406l0.4844-3.9706l-7.9411-0.9688l-0.4844,3.9706l2.7918,0.3406l-1.6463,13.4954l-3.5271-0.0057l-3.4647-7.6157
		l2.56-1.1647l-1.6564-3.6409l-7.2819,3.3128l1.6564,3.6409l2.5601-1.1647l3.0153,6.628l-6.3365-0.0102l-0.0669,41.1934
		l-13.8551-3.9296c-0.5425-8.2195-5.1462-16.0007-12.9024-20.2198c-9.9134-5.3925-21.915-3.3041-29.4937,4.3284l11.4722,6.2404
		c3.7007-2.0179,8.3164-2.1875,12.2874-0.0274c6.2161,3.3813,8.5223,11.1892,5.141,17.4052
		c-3.3813,6.2161-11.1894,8.5227-17.4055,5.1414c-3.971-2.16-6.3361-6.1271-6.653-10.3307l-11.4721-6.2404
		C12.0902,297.8298,16.858,309.04,26.7714,314.4324z M82.1702,306.5876c0.8777-2.7997,3.8588-4.3577,6.6584-3.48
		c2.7997,0.8777,4.3577,3.8588,3.48,6.6584c-0.8777,2.7996-3.8588,4.3577-6.6584,3.48
		C82.8505,312.3683,81.2925,309.3873,82.1702,306.5876z"></path>
	<path d="M86.5476,310.3835c1.2165,0.3813,2.5168-0.2979,2.8984-1.5148s-0.2983-2.517-1.5148-2.8984
		c-1.2165-0.3814-2.5168,0.2979-2.8984,1.5148S85.3311,310.0021,86.5476,310.3835z"></path>
	<path d="M166.4114,84.8752h-24.1665c-1.103,0-2,0.897-2,2s0.897,2,2,2h24.1665c1.103,0,2-0.897,2-2
		S167.5145,84.8752,166.4114,84.8752z"></path>
	<path d="M117.4951,66.1292V98.781c0,20.2583,73.6667,20.2583,73.6667,0V66.1292c0-19.2475-14.9652-35.1589-33.833-36.6999v-3.0087
		v-8.6857c3.5637-1.2421,6.125-4.6229,6.125-8.6099c0-5.0396-4.0854-9.125-9.125-9.125s-9.125,4.0854-9.125,9.125
		c0,3.9871,2.5613,7.3679,6.125,8.6099v8.6856v3.0087C132.4607,30.97,117.4951,46.8814,117.4951,66.1292z M173.4114,86.8752
		c0,3.8599-3.1401,7-7,7h-24.1665c-3.8599,0-7-3.1401-7-7s3.1401-7,7-7h24.1665C170.2713,79.8752,173.4114,83.0154,173.4114,86.8752
		z M140.8281,55.4583c4.8325,0,8.75,3.9175,8.75,8.75c0,1.0087-0.1793,1.9733-0.4933,2.8749
		c-0.4494-1.5676-1.8799-2.7249-3.5895-2.7249c-2.0674,0-3.75,1.6821-3.75,3.75c0,1.9433,1.4914,3.5272,3.3862,3.7133
		c-1.2715,0.7203-2.7377,1.1367-4.3034,1.1367c-4.8325,0-8.75-3.9175-8.75-8.75C132.0781,59.3759,135.9957,55.4583,140.8281,55.4583
		z M167.8281,55.4583c4.8325,0,8.75,3.9175,8.75,8.75c0,1.0087-0.1793,1.9733-0.4933,2.8749
		c-0.4494-1.5676-1.8799-2.7249-3.5895-2.7249c-2.0674,0-3.75,1.6821-3.75,3.75c0,1.9433,1.4914,3.5272,3.3862,3.7133
		c-1.2715,0.7203-2.7377,1.1367-4.3034,1.1367c-4.8325,0-8.75-3.9175-8.75-8.75C159.0781,59.3759,162.9957,55.4583,167.8281,55.4583
		z M154.3288,5c2.2744,0,4.125,1.8506,4.125,4.125s-1.8506,4.125-4.125,4.125s-4.125-1.8506-4.125-4.125S152.0544,5,154.3288,5z"></path>
	<rect x="138.4943" y="138.4932" transform="matrix(0.9451 -0.3267 0.3267 0.9451 -37.5896 57.2097)" width="26" height="4"></rect>
	<rect x="142.0669" y="148.2212" width="26" height="4"></rect>
	<path d="M145.313,157.5441c-1.0728,0.2632-1.7291,1.3461-1.4659,2.4189c0.2631,1.0728,1.3461,1.7291,2.4189,1.4659
		c1.0728-0.2631,1.7291-1.3461,1.4659-2.4189C147.4688,157.9373,146.3858,157.2809,145.313,157.5441z"></path>
	<path d="M151.1403,156.1146c-1.0728,0.2632-1.7291,1.3461-1.4659,2.4189c0.2632,1.0728,1.3461,1.7291,2.4189,1.4659
		c1.0728-0.2631,1.7291-1.3461,1.4659-2.4189C153.296,156.5078,152.213,155.8515,151.1403,156.1146z"></path>
	<path d="M268.9671,256.9167c-0.4004,2.666,0.0713,5.3896,1.3452,7.7651l25,46.6255c2.2539,4.2046,6.5684,6.5957,11.0269,6.5957
		c1.9937,0,4.0161-0.478,5.896-1.4863c6.0845-3.2622,8.3721-10.8389,5.1094-16.9229l-23.0376-42.9663l4.5504-30.2689
		l-29.4543,27.7582L268.9671,256.9167z"></path>
	<path d="M282.973,145.0833c1.1916,0.1729,2.3375,0.5522,3.4055,1.1281c2.421,1.3034,4.1902,3.4734,4.9813,6.1089
		c0.791,2.635,0.5073,5.4205-0.7973,7.8428l-16.8395,31.2701c-0.4853,0.9008-1.0973,1.7044-1.8007,2.4034
		c0.4117,5.7354,0.4029,11.4661-0.3267,16.908c-0.082,1.3878-0.1133,2.6422-0.0981,3.7852l-30.5752,28.8151
		c-1.8555,1.749-3.1328,4.0239-3.6582,6.5195l-11.167,53c-1.4229,6.7554,2.8994,13.3853,9.6543,14.8086
		c0.8691,0.1831,1.7354,0.271,2.5898,0.271c5.7842,0,10.9785-4.0391,12.2188-9.9253l10.3594-49.167l39.9463-37.6465
		c0.6851-0.6455,1.2725-1.354,1.7788-2.1022c2.105-2.5735,3.7642-6.1011,4.7051-10.9424
		c2.5859-22.2149,1.123-35.3477-5.6816-55.5205c-5.0352-14.6426-17.4102-19.2774-25.9473-17.1504
		c-8.5352,2.1289-12.2891,14.041-9.4199,23.9912c0.1062,0.5424,0.2206,1.1099,0.3326,1.67l5.7919-10.7554
		C274.47,146.5995,278.7081,144.4646,282.973,145.0833z"></path>
	<circle cx="265.4596" cy="110.0629" r="22.5"></circle>
	<path d="M229.0598,189.9014c1.0425,2.2403,3.7056,3.2115,5.9445,2.1675c1.1882-0.5535,2.0045-1.5657,2.3673-2.7242l-9.9135-2.8819
		L229.0598,189.9014z"></path>
	<path d="M218.0106,155.5852c-2.2404,1.0425-4.901,0.0731-5.9457-2.1669l-2.9118-6.2534
		c-2.8041,3.2036-3.6273,7.8778-1.7132,11.9859c1.9116,4.1063,6.0201,6.4835,10.2767,6.3983l1.822,3.9116
		c1.9122-2.4359,4.8658-3.9335,8.0262-3.961l-1.7362-3.7275c2.8019-3.2032,3.6275-7.8788,1.7131-11.986
		c-1.9118-4.1084-6.0217-6.485-10.2769-6.4005l2.9128,6.2537C221.221,151.8801,220.2513,154.5417,218.0106,155.5852z"></path>
	<path d="M219.9667,173.559c-1.2332,4.2424,1.2056,8.6815,5.4485,9.9147l37.0059,10.7576c0.3617,0.1053,0.7253,0.1837,1.0896,0.2365
		c3.284,0.4764,6.5768-1.1354,8.1878-4.1251l16.8395-31.2701c2.0948-3.89,0.6395-8.7419-3.2513-10.8369
		c-3.8887-2.0971-8.7421-0.6386-10.8367,3.2504l-13.7725,25.5763l-30.7955-8.9523
		C225.6249,166.8723,221.1988,169.3169,219.9667,173.559z"></path>
	<path d="M79.6116,129.2483c6.0815-1.1689,10.5049-1.2417,13.7246-0.7324c-0.8164,2.2402-0.7446,5.0327,0.2188,8.3447
		c1.6323,5.6104,4.3228,6.5308,5.9097,6.5303c0.4111,0,0.7485-0.0615,0.9736-0.1196c3.1743-0.8174,5.2314-5.272,4.3164-9.3467
		c-0.3511-1.563-1.6479-4.9858-6.3545-7.0371c3.4646-2.0969,9.7313-1.586,13.9284-0.8181v18.6501l-33.5344,12.3369l2.3018,6.2567
		l31.2326-11.4901v39.1316c0,0.0012-0.0002,0.0024-0.0002,0.0036v97.2791c-5.8278,4.4958-9.5856,11.5439-9.5856,19.4735
		c0,13.5783,49.1716,13.5783,49.1716,0c0-7.9298-3.758-14.9781-9.586-19.4738v-72.612h24v72.6123
		c-5.8278,4.4958-9.5856,11.5439-9.5856,19.4735c0,13.5783,49.1716,13.5783,49.1716,0c0-7.9298-3.758-14.9781-9.586-19.4738
		v-80.6084c0-0.0012,0.0002-0.0024,0.0002-0.0036v-68.8499h4.5v-6.0865l14.6018,0.9413l0.2359-3.6591l-14.8377-0.9566v-2.5424
		l9.8278-3.6306l-1.2706-3.4395l-8.5571,3.1612v-4.788h-4.5v-0.6501c0-4.4-3.6-8-8-8h-0.1572
		c-7.4084,5.3597-20.661,7.8501-33.8423,7.8501c-13.182,0-26.4348-2.4904-33.8433-7.8501h-0.1572
		c-3.5424,0-6.5625,2.3351-7.6068,5.5407c-2.2057-2.1169-5.0687-4.1023-8.4457-4.7104c-3.9058-0.7021-7.7456,0.5356-11.4229,3.6797
		c-0.6294,0.5386-0.7031,1.4854-0.165,2.1152c0.5391,0.6294,1.4863,0.7031,2.1152,0.165c2.9556-2.5283,5.9629-3.5415,8.9312-3.0093
		c3.5839,0.6417,6.5863,3.3627,8.5939,5.7261v4.3953c-4.8408-0.8315-13.1221-1.4926-17.1843,2.6272
		c-0.0513,0.0522-0.1025,0.1055-0.1523,0.1587c-3.7329-0.8022-8.8735-0.8706-15.9468,0.4888
		c-0.8135,0.1563-1.3462,0.9429-1.1899,1.7563S78.7957,129.4001,79.6116,129.2483z M184.3472,170.379
		c2.4434,1.9348,2.8596,5.5169,0.9249,7.9603l-12.0017,15.157c-1.9348,2.4434-5.5169,2.8596-7.9603,0.9249
		c-2.4435-1.9348-2.8596-5.5169-0.9249-7.9603l12.0017-15.1571C178.3217,168.8604,181.9038,168.4442,184.3472,170.379z
		 M169.2079,129.0303l7.1472,29.1362l-36.9059,9.0531l-7.1472-29.1362L169.2079,129.0303z M96.2874,129.2395
		c4.1924,1.4692,5.2681,4.1309,5.54,5.3428c0.6343,2.8228-0.8594,5.4546-2.1372,5.7837c-1.1289,0.292-2.4028-1.4146-3.2544-4.3433
		C95.6092,133.1824,95.5609,130.9109,96.2874,129.2395z"></path>
	
		<rect x="170.7453" y="178.5667" transform="matrix(0.6208 -0.784 0.784 0.6208 -76.7004 206.2323)" width="8.1667" height="7.6667"></rect>
	<path d="M217.8286,310.1077c-2.7996-0.8777-5.7808,0.6803-6.6584,3.48c-0.8777,2.7996,0.6804,5.7807,3.48,6.6584
		c2.7997,0.8777,5.7808-0.6804,6.6584-3.48C222.1863,313.9664,220.6283,310.9854,217.8286,310.1077z M218.446,315.8687
		c-0.3815,1.217-1.6819,1.8962-2.8984,1.5148c-1.2166-0.3814-1.8964-1.6814-1.5148-2.8984s1.6819-1.8962,2.8984-1.5148
		C218.1477,313.3517,218.8275,314.6517,218.446,315.8687z"></path>
	<path d="M326.8514,320.2461c2.7996,0.8777,5.7807-0.6804,6.6584-3.48c0.8777-2.7997-0.6804-5.7808-3.48-6.6584
		c-2.7997-0.8777-5.7808,0.6803-6.6584,3.48C322.4937,316.3873,324.0518,319.3683,326.8514,320.2461z M326.2341,314.4851
		c0.3815-1.217,1.6818-1.8962,2.8984-1.5148c1.2165,0.3814,1.8964,1.6814,1.5148,2.8984s-1.6819,1.8962-2.8984,1.5148
		C326.5323,317.0021,325.8525,315.7021,326.2341,314.4851z"></path>
	<path d="M10.3831,316.7661c0.8777-2.7997-0.6803-5.7808-3.48-6.6584c-2.7996-0.8777-5.7807,0.6803-6.6584,3.48
		c-0.8777,2.7996,0.6804,5.7807,3.48,6.6584C6.5244,321.1238,9.5054,319.5657,10.3831,316.7661z M3.1073,314.4851
		c0.3815-1.217,1.6819-1.8962,2.8984-1.5148c1.2165,0.3814,1.8963,1.6814,1.5148,2.8984s-1.6818,1.8962-2.8984,1.5148
		C3.4056,317.0021,2.7258,315.7021,3.1073,314.4851z"></path>
	<polygon points="256.7959,308.841 255.5972,316.7507 259.5521,317.35 259.9735,314.5692 279.2534,317.4909 279.6092,315.1427 
		260.3293,312.2211 260.7507,309.4403 	"></polygon>
	<polygon points="292.0173,317.8018 275.757,307.0383 277.3094,304.6931 273.9739,302.4852 269.5582,309.1561 272.8936,311.364 
		274.446,309.0188 290.7064,319.7822 	"></polygon>
</g>
</svg>