<svg xmlns="http://www.w3.org/2000/svg" xml:space="preserve" width="850px" height="850px" version="1.1" style="shape-rendering:geometricPrecision; text-rendering:geometricPrecision; image-rendering:optimizeQuality; fill-rule:evenodd; clip-rule:evenodd" viewBox="0 0 850 850" xmlns:xlink="http://www.w3.org/1999/xlink" xmlns:xodm="http://www.corel.com/coreldraw/odm/2003">
 <defs>
  <style type="text/css">
   
    .fil1 {fill:#E6E6E6}
    .fil0 {fill:url(#id0)}
   
  </style>
  <linearGradient id="id0" gradientUnits="userSpaceOnUse" x1="425" y1="850" x2="425" y2="0">
   <stop offset="0" style="stop-opacity:1; stop-color:#1AA8DC"></stop>
   <stop offset="0.490196" style="stop-opacity:1; stop-color:#AE3B89"></stop>
   <stop offset="1" style="stop-opacity:1; stop-color:#F26270"></stop>
  </linearGradient>
 </defs>
 <g id="Layer_x0020_1">
  <metadata id="CorelCorpID_0Corel-Layer"></metadata>
  <circle class="fil0" cx="425" cy="425" r="425"></circle>
  <path class="fil1" d="M639.45 432.49l-0.1 0 -0.09 0 -0.01 0 -0.09 -0.01 -0.1 0 0 0 -0.09 -0.01 -0.09 0 -0.01 0 -0.09 -0.01 -0.09 -0.01 -0.01 0 -0.08 -0.01 -0.1 -0.01 -0.01 0 -0.08 -0.01c-2.13,-0.3 -3.97,-1.47 -5.13,-3.16l-74.95 -72.9c-2.91,-2.91 -2.91,-7.49 0,-10.4 2.91,-2.91 7.49,-2.91 10.4,0l62.42 60.89c-9.22,-105.52 -98.1,-188.6 -206.36,-188.6 -92.35,0 -174.72,61.98 -199.68,151.01 -1.25,3.74 -4.99,6.24 -9.15,4.99 -3.75,-1.25 -6.24,-4.99 -5,-9.15 27.05,-95.27 114.82,-161.83 213.83,-161.83 110.6,0 202.48,81.3 219.06,187.3l23.06 -67.91c1.24,-3.74 5.4,-5.82 9.15,-4.57 3.74,1.24 5.82,5.4 4.57,9.15l-34.49 100.16 -0.04 0.1 -0.03 0.08 -0.01 0.03c-0.2,0.58 -0.47,1.11 -0.79,1.58l0 0.01 0 0 -0.07 0.1c-1.13,1.67 -2.89,2.84 -4.83,3.12l-0.03 0.01c-0.29,0.05 -0.59,0.06 -0.81,0.06l-0.02 0 -0.02 0 -0.02 0 -0.02 0z"></path>
  <path class="fil1" d="M424.79 646.73c-109.9,0 -201.31,-80.29 -218.72,-185.31l-22.56 66.75c-1.25,2.91 -4.16,4.99 -7.07,4.99 -0.84,0 -1.67,0 -2.5,-0.42 -3.74,-1.24 -5.82,-5.4 -4.58,-9.15l33.78 -99.68c0.52,-3.63 3.62,-6.4 7.41,-6.4 3.45,0 6.33,2.29 7.21,5.45l73.91 71.1c2.91,2.91 2.91,7.48 0,10.4 -2.91,2.91 -7.49,2.91 -10.4,0l-62.43 -61.27c9.22,105.88 98.09,188.98 206.37,188.98 80.29,0 153.92,-47.01 188.03,-120.23 1.67,-3.74 5.83,-5.4 9.57,-3.32 3.74,1.66 5.41,5.82 3.33,9.57 -36.2,78.2 -115.24,128.54 -201.35,128.54z"></path>
  <path class="fil1" d="M447.25 566.02l-44.92 0c-3.75,0 -6.66,-2.49 -7.07,-6.23l-5.83 -40.36c-2.08,-0.83 -4.16,-1.66 -6.24,-2.49l-32.45 24.13c-2.91,2.08 -7.07,2.08 -9.57,-0.84l-31.61 -31.61c-2.5,-2.5 -2.92,-6.66 -0.84,-9.57l24.13 -32.45c-0.83,-2.08 -1.66,-4.16 -2.49,-5.82l-40.36 -5.83c-3.74,-0.41 -6.24,-3.74 -6.24,-7.07l0 -45.34c0,-3.75 2.5,-6.66 6.25,-7.08l40.35 -5.82c0.83,-2.08 1.66,-4.16 2.49,-6.24l-24.12 -32.45c-2.08,-2.91 -1.67,-7.07 0.83,-9.57l31.61 -31.61c2.5,-2.5 6.66,-2.92 9.57,-0.83l32.45 24.54c2.08,-0.83 4.16,-1.67 5.82,-2.5l5.83 -40.35c0.42,-3.74 3.74,-6.24 7.07,-6.24l44.93 0c3.74,0 6.66,2.5 7.07,6.24l5.83 40.35c2.08,0.83 4.15,1.67 6.24,2.5l32.86 -24.54c2.91,-2.09 7.07,-1.67 9.57,0.83l31.62 31.61c2.49,2.5 2.91,6.66 0.83,9.57l-24.55 32.87c0.83,2.08 1.67,4.16 2.5,6.24l40.35 5.82c3.75,0.42 6.24,3.74 6.24,7.07l0 44.93c0,3.74 -2.49,6.66 -6.24,7.07l-40.35 5.83c-0.83,2.08 -1.67,4.16 -2.5,5.82l24.55 32.45c2.08,2.91 2.08,7.07 -0.84,9.57l-31.61 31.61c-2.5,2.5 -6.66,2.92 -9.57,0.83l-32.87 -24.12c-2.08,0.83 -4.16,1.66 -6.24,2.49l-5.82 40.36c0,3.74 -2.91,6.23 -6.66,6.23zm-22.46 -83.19c-31.62,0 -57.41,-25.8 -57.41,-57.41 0,-31.62 25.8,-57.41 57.41,-57.41 31.62,0 57.41,25.79 57.41,57.41 0.41,31.61 -25.38,57.41 -57.41,57.41zm0 -100.68c-23.71,0 -42.85,19.14 -42.85,42.85 0,23.71 19.14,42.85 42.85,42.85 23.71,0 42.85,-19.14 42.85,-42.85 0.41,-23.71 -19.14,-42.85 -42.85,-42.85z"></path>
 </g>
</svg>